<svg width="126" height="36" viewBox="0 0 126 36" fill="none" xmlns="http://www.w3.org/2000/svg">
<path fill-rule="evenodd" clip-rule="evenodd" d="M107.623 7.63035e-05V27.9534H111.861V21.7932L114.905 18.5587L121.124 27.9534H126L118.011 15.8019L125.662 7.66334H120.374L111.861 16.4596V0L107.623 7.63035e-05ZM78.5645 28.1784C76.4392 28.1784 74.789 27.5783 73.6138 26.3782C72.4387 25.178 71.8511 23.4903 71.8511 21.315V11.4888H68.2882V7.66334H68.8508C69.8009 7.66334 70.5385 7.3883 71.0635 6.83823C71.5886 6.28817 71.8511 5.53807 71.8511 4.58795V3.01276H76.0892V7.66334H80.7022V11.4888H76.0892V21.1275C76.0892 21.8276 76.2017 22.4277 76.4267 22.9277C76.6517 23.4028 77.0143 23.7779 77.5143 24.0529C78.0144 24.3029 78.6645 24.4279 79.4646 24.4279C79.6646 24.4279 79.8896 24.4154 80.1397 24.3904C80.3897 24.3654 80.6272 24.3404 80.8523 24.3154V27.9534C80.5022 28.0034 80.1147 28.0534 79.6896 28.1034C79.2646 28.1534 78.8895 28.1784 78.5645 28.1784ZM28.6553 35.4543V7.66334H32.7058V10.2194C33.3846 9.38356 34.2222 8.70656 35.2186 8.1884C36.4688 7.53832 37.894 7.21328 39.4942 7.21328C40.8808 7.21328 42.1636 7.45322 43.3427 7.93309V12.8643C43.0212 12.5423 42.6635 12.2588 42.2695 12.0139C41.3444 11.4388 40.2818 11.1513 39.0816 11.1513C37.9065 11.1513 36.8438 11.4388 35.8937 12.0139C34.9686 12.589 34.231 13.3766 33.6809 14.3767C33.1559 15.3768 32.8933 16.5144 32.8933 17.7896C32.8933 19.0648 33.1559 20.2149 33.6809 21.24C34.231 22.2402 34.9686 23.0278 35.8937 23.6028C36.8438 24.1779 37.9065 24.4654 39.0816 24.4654C40.2818 24.4654 41.3444 24.1779 42.2695 23.6028C42.6635 23.3579 43.0212 23.0744 43.3427 22.7524V27.6975C42.1679 28.1681 40.8851 28.4034 39.4942 28.4034C37.919 28.4034 36.4813 28.0784 35.1811 27.4283C34.2726 26.9651 33.51 26.3559 32.8933 25.6008V35.4543H28.6553Z" fill="white"/>
<path fill-rule="evenodd" clip-rule="evenodd" d="M9.82623 0.0136719L0 27.9547H4.72559L6.4769 22.9121L8.1808 17.7534H8.17602L8.29945 17.3942L8.32135 17.3278H8.32224L12.5782 4.94117L16.9146 17.7534H12.2596L10.9469 21.6914H18.2648L20.4025 27.9547H25.1281L15.3019 0.0136719H9.82623Z" fill="white"/>
<path d="M45.843 35.4539V7.66295H49.8935V11.8635L49.406 10.8884C50.1561 9.73821 51.1562 8.83809 52.4063 8.18801C53.6565 7.53793 55.0817 7.21289 56.6819 7.21289C58.6071 7.21289 60.3323 7.67545 61.8575 8.60056C63.4077 9.52568 64.6204 10.7883 65.4955 12.3885C66.3956 13.9887 66.8456 15.789 66.8456 17.7892C66.8456 19.7895 66.3956 21.5897 65.4955 23.1899C64.6204 24.7901 63.4202 26.0652 61.895 27.0154C60.3698 27.9405 58.6321 28.403 56.6819 28.403C55.1067 28.403 53.669 28.078 52.3688 27.4279C51.0937 26.7778 50.106 25.8402 49.406 24.6151L50.081 23.8275V35.4539H45.843ZM56.2693 24.465C57.4695 24.465 58.5321 24.1775 59.4572 23.6024C60.3823 23.0274 61.1074 22.2398 61.6325 21.2396C62.1826 20.2145 62.4576 19.0644 62.4576 17.7892C62.4576 16.5141 62.1826 15.3764 61.6325 14.3763C61.1074 13.3762 60.3823 12.5886 59.4572 12.0135C58.5321 11.4384 57.4695 11.1509 56.2693 11.1509C55.0942 11.1509 54.0315 11.4384 53.0814 12.0135C52.1563 12.5886 51.4187 13.3762 50.8686 14.3763C50.3436 15.3764 50.081 16.5141 50.081 17.7892C50.081 19.0644 50.3436 20.2145 50.8686 21.2396C51.4187 22.2398 52.1563 23.0274 53.0814 23.6024C54.0315 24.1775 55.0942 24.465 56.2693 24.465Z" fill="white"/>
<path d="M94.3242 27.8913C92.2989 27.8913 90.4987 27.4288 88.9235 26.5036C87.3733 25.5535 86.1607 24.2784 85.2856 22.6782C84.4105 21.053 83.9729 19.2402 83.9729 17.24C83.9729 15.1897 84.4105 13.377 85.2856 11.8018C86.1857 10.2266 87.3858 8.98896 88.886 8.08884C90.3862 7.16373 92.0864 6.70117 93.9867 6.70117C95.5118 6.70117 96.8745 6.96371 98.0747 7.48877C99.2748 8.01384 100.287 8.73893 101.113 9.66404C101.938 10.5642 102.563 11.6018 102.988 12.7769C103.438 13.9521 103.663 15.2022 103.663 16.5274C103.663 16.8524 103.65 17.19 103.625 17.54C103.6 17.8901 103.55 18.2151 103.475 18.5151H91.4738V15.1397H101.075L99.0498 16.6774C99.2998 15.4523 99.2123 14.3646 98.7873 13.4145C98.3872 12.4394 97.7621 11.6768 96.912 11.1267C96.0869 10.5517 95.1118 10.2641 93.9867 10.2641C92.8615 10.2641 91.8614 10.5517 90.9863 11.1267C90.1112 11.6768 89.4361 12.4769 88.961 13.527C88.486 14.5522 88.2984 15.8023 88.3985 17.2775C88.2734 18.6527 88.461 19.8528 88.961 20.8779C89.4861 21.9031 90.2112 22.7032 91.1363 23.2782C92.0864 23.8533 93.1616 24.1409 94.3617 24.1409C95.5869 24.1409 96.6245 23.8658 97.4746 23.3158C98.3497 22.7657 98.3497 22.8657 98.3497 22.8657H102.988C102.588 23.8158 101.963 24.6784 101.113 25.4535C100.287 26.2036 99.2873 26.8037 98.1122 27.2537C96.962 27.6788 95.6994 27.8913 94.3242 27.8913Z" fill="white"/>
</svg>
